<!DOCTYPE svg PUBLIC "-//W3C//DTD SVG 1.1//EN" "http://www.w3.org/Graphics/SVG/1.1/DTD/svg11.dtd">
<!-- Uploaded to: SVG Repo, www.svgrepo.com, Transformed by: SVG Repo Mixer Tools -->
<svg fill="#000000" width="800px" height="800px" viewBox="0 0 24 24" id="file-error" data-name="Flat Color" xmlns="http://www.w3.org/2000/svg" class="icon flat-color">
<g id="SVGRepo_bgCarrier" stroke-width="0"/>
<g id="SVGRepo_tracerCarrier" stroke-linecap="round" stroke-linejoin="round"/>
<g id="SVGRepo_iconCarrier">
<path id="primary" d="M17.71,6.29l-4-4A1,1,0,0,0,13,2H4A2,2,0,0,0,2,4V20a2,2,0,0,0,2,2H16a2,2,0,0,0,2-2V7A1,1,0,0,0,17.71,6.29Z" style="fill: #000000;"/>
<path id="secondary" d="M22.5,20.5A1.5,1.5,0,1,1,21,19,1.5,1.5,0,0,1,22.5,20.5ZM22,16V13a1,1,0,0,0-2,0v3a1,1,0,0,0,2,0Z" style="fill: #0055ff;"/>
</g>
</svg>